<?xml version="1.0" encoding="UTF-8"?>
<svg version="1.1" xmlns="http://www.w3.org/2000/svg" width="300" height="180">
<path d="M0 0 C21.78 0 43.56 0 66 0 C66 22.11 66 44.22 66 67 C44.22 67 22.44 67 0 67 C0 44.89 0 22.78 0 0 Z " fill="#F9C552" transform="translate(214,52)"/>
<path d="M0 0 C0.99 0 1.98 0 3 0 C3.33 1.32 3.66 2.64 4 4 C4.61875 3.34 5.2375 2.68 5.875 2 C10.26568933 -0.81004117 13.91704189 -0.79013932 19 0 C23.02217921 1.82826328 24.57604941 3.30754738 26.875 7.0625 C29.03037993 13.0154541 28.85835613 19.51528489 26.8125 25.4375 C24.29658798 28.99447906 22.21449864 31.4023719 17.88671875 32.5703125 C12.71527487 33.38731372 9.51222829 32.93294839 5 30 C4.67 29.67 4.34 29.34 4 29 C3.67 33.62 3.34 38.24 3 43 C2.01 43 1.02 43 0 43 C0 28.81 0 14.62 0 0 Z M5.9375 5.375 C2.83243502 10.03259747 2.53359568 15.66676382 3.29296875 21.09375 C4.14997419 24.55107109 5.24149196 26.78175275 8 29 C12.14589985 30.22668947 15.84081142 30.45359553 19.875 28.875 C23.16406682 25.97288222 24.78668902 23.91395467 25.28515625 19.44140625 C25.45743566 13.92097482 25.24049692 9.68071778 22 5 C16.73063666 1.48709111 10.95482698 1.48401173 5.9375 5.375 Z " fill="#616161" transform="translate(78,84)"/>
<path d="M0 0 C4.46169401 2.32499284 6.59245496 4.97227772 8.4375 9.625 C9 13 9 13 9 17 C0.75 17 -7.5 17 -16 17 C-14.01668409 25.43750833 -14.01668409 25.43750833 -10.6875 28.0625 C-6.3969399 29.55920701 -3.44277366 29.6230159 0.75 27.8125 C3.33205059 25.7325148 4.06601394 24.14158949 5 21 C5.99 21 6.98 21 8 21 C7.49614177 25.40875955 6.0886933 27.82550966 3 31 C-0.96533466 33.25059535 -4.49653782 33.47404865 -9 33 C-14.08643801 30.26114877 -17.17004027 27.4898792 -19 22 C-19.5079081 15.77812579 -19.75354356 10.25496099 -16 5 C-11.33156982 -0.23775093 -6.94140909 -1.53522476 0 0 Z M-14 7 C-14.99 10.465 -14.99 10.465 -16 14 C-8.74 14 -1.48 14 6 14 C4.6492736 7.39637271 4.6492736 7.39637271 1.875 4.5625 C-3.98212946 1.37927747 -9.48858727 1.82514423 -14 7 Z " fill="#646464" transform="translate(144,84)"/>
<path d="M0 0 C3.78598762 1.93935284 6.68109268 4.92337736 8 9 C8.6875 12.6875 8.6875 12.6875 9 16 C8 17 8 17 5.68334961 17.11352539 C4.68311768 17.10828857 3.68288574 17.10305176 2.65234375 17.09765625 C1.57275391 17.09443359 0.49316406 17.09121094 -0.61914062 17.08789062 C-1.75544922 17.07951172 -2.89175781 17.07113281 -4.0625 17.0625 C-5.20267578 17.05798828 -6.34285156 17.05347656 -7.51757812 17.04882812 C-10.34510351 17.03699747 -13.1725264 17.0205141 -16 17 C-15.55736527 18.4598488 -15.10335796 19.91625284 -14.64453125 21.37109375 C-14.39292236 22.18247803 -14.14131348 22.9938623 -13.88208008 23.82983398 C-13.09691499 26.21855349 -13.09691499 26.21855349 -10.6875 28.0625 C-6.81637709 29.41289171 -3.75459386 29.50131253 0.1875 28.375 C2.79621014 26.39597852 3.71414249 23.95747227 5 21 C5.99 21 6.98 21 8 21 C7.49614177 25.40875955 6.0886933 27.82550966 3 31 C-0.96338566 33.24948916 -4.49821502 33.40194509 -9 33 C-13.69241302 30.9266082 -16.71319554 27.57360892 -19 23 C-19.72770297 15.66059572 -19.77054534 9.66618726 -15.484375 3.48828125 C-11.18462881 -0.82278006 -5.74887251 -0.8976946 0 0 Z M-15 8 C-15.33 9.98 -15.66 11.96 -16 14 C-9.07 14 -2.14 14 5 14 C4.67323238 7.39085732 4.67323238 7.39085732 2 4.5625 C-4.59832054 1.12587472 -10.58490897 1.65330665 -15 8 Z " fill="#636363" transform="translate(39,84)"/>
<path d="M0 0 C3.125 1.625 3.125 1.625 5 4 C5.8125 7.25 5.8125 7.25 6 10 C5.01 10 4.02 10 3 10 C2.71125 9.195625 2.4225 8.39125 2.125 7.5625 C1.26737432 4.8673532 1.26737432 4.8673532 -1 4 C-2.66345582 3.87917466 -4.33220591 3.8246206 -6 3.8125 C-6.886875 3.79832031 -7.77375 3.78414063 -8.6875 3.76953125 C-11.19519984 3.77286874 -11.19519984 3.77286874 -13 6 C-13.16681109 9.08347826 -13.16681109 9.08347826 -13 12 C-11.89140625 12.23074219 -10.7828125 12.46148437 -9.640625 12.69921875 C-8.17685477 13.02762874 -6.71332517 13.35711257 -5.25 13.6875 C-4.52039063 13.83638672 -3.79078125 13.98527344 -3.0390625 14.13867188 C0.76515589 15.02055887 2.63755579 15.64098046 5.48046875 18.45703125 C7.40491446 21.6776332 7.69200286 23.30931806 7 27 C4.91204014 29.60994982 3.21708759 31.47259538 0.125 32.8125 C-5.78801828 33.33423691 -9.90904482 33.35540228 -15 30 C-17.60691129 26.61101532 -18 25.37265387 -18 21 C-17.01 21 -16.02 21 -15 21 C-14.5875 21.94875 -14.175 22.8975 -13.75 23.875 C-11.90636556 27.16720436 -11.39664767 27.7703892 -8 29 C-5.6971108 29.10301939 -5.6971108 29.10301939 -3.375 28.75 C-2.59898437 28.66234375 -1.82296875 28.5746875 -1.0234375 28.484375 C1.21325027 28.13545643 1.21325027 28.13545643 3 26 C3.16687448 23.41645782 3.16687448 23.41645782 3 21 C-1.85313736 18.78443729 -6.58292707 17.2209854 -11.765625 15.94140625 C-14.52436944 14.77906812 -15.49369341 13.55833023 -17 11 C-17.4375 8 -17.4375 8 -17 5 C-12.25997148 -0.84603518 -7.13752535 -0.73126162 0 0 Z " fill="#5D5D5D" transform="translate(174,84)"/>
<path d="M0 0 C0.94746094 -0.00515625 1.89492187 -0.0103125 2.87109375 -0.015625 C5.65179236 0.2588126 7.24201004 0.72000662 9.5625 2.25 C11.7144437 5.47791555 11.76336443 6.53400809 11.5625 10.25 C10.5725 10.25 9.5825 10.25 8.5625 10.25 C8.0984375 9.0434375 8.0984375 9.0434375 7.625 7.8125 C6.79914655 5.35919595 6.79914655 5.35919595 5.5625 4.25 C3.3002642 4.01153097 3.3002642 4.01153097 0.6875 4 C-0.19679687 3.97421875 -1.08109375 3.9484375 -1.9921875 3.921875 C-4.84714372 4.30496817 -5.67745897 5.03537883 -7.4375 7.25 C-6.944735 9.74895028 -6.944735 9.74895028 -5.4375 12.25 C-2.2675022 13.5852697 -2.2675022 13.5852697 1.4375 14.3125 C6.31764642 15.41791939 9.49619042 16.14400806 12.5625 20.25 C13.34400648 23.00952631 13.23680385 25.46706799 12.5625 28.25 C9.13605828 31.86165479 6.20299065 33.12618939 1.25 33.5 C-3.63350462 33.16891494 -6.8806042 31.91426793 -10.25 28.3125 C-11.42608039 26.26983406 -12.02476416 24.56132071 -12.4375 22.25 C-11.1175 22.25 -9.7975 22.25 -8.4375 22.25 C-8.19 23.03375 -7.9425 23.8175 -7.6875 24.625 C-6.66680976 27.27419575 -6.66680976 27.27419575 -4.75 28.5625 C-0.69161938 29.76904559 3.0644416 29.86458806 7 28.25 C7.515625 27.92 8.03125 27.59 8.5625 27.25 C8.5625 25.27 8.5625 23.29 8.5625 21.25 C3.96331116 19.19504328 -0.58707985 17.51375976 -5.421875 16.09375 C-7.69322237 15.14295343 -8.87307197 14.13679501 -10.4375 12.25 C-11.3125 9.875 -11.3125 9.875 -11.4375 7.25 C-8.84084302 1.66718749 -6.06543302 -0.03291958 0 0 Z " fill="#606060" transform="translate(196.4375,83.75)"/>
<path d="M0 0 C3.20419855 0.28144987 4.00246392 1.00288207 6.140625 3.50390625 C6.83671875 4.51324219 7.5328125 5.52257812 8.25 6.5625 C8.95640625 7.57441406 9.6628125 8.58632812 10.390625 9.62890625 C10.92171875 10.41136719 11.4528125 11.19382812 12 12 C15.34218454 8.79496774 17.91976812 5.41105324 20.53515625 1.609375 C21.01855469 1.07828125 21.50195312 0.5471875 22 0 C22.99 0 23.98 0 25 0 C23.32253891 4.82802254 20.66993231 7.99288388 17.36328125 11.81640625 C15.83100867 13.83880958 15.83100867 13.83880958 16.0078125 15.89453125 C17.4473615 18.94932224 19.47397468 21.49595281 21.5625 24.125 C26 29.7408953 26 29.7408953 26 32 C24.68 32 23.36 32 22 32 C20.21822021 29.85242436 18.73979833 27.83417915 17.25 25.5 C16.83878906 24.87996094 16.42757812 24.25992188 16.00390625 23.62109375 C14.99025371 22.08882829 13.99348354 20.54541883 13 19 C9.40484337 22.37820753 7.06495218 25.95578709 4.5625 30.171875 C4.046875 30.77515625 3.53125 31.3784375 3 32 C1.68 32 0.36 32 -1 32 C0.67923025 28.19866558 3.11462834 25.02917298 5.625 21.75 C6.04523437 21.19570312 6.46546875 20.64140625 6.8984375 20.0703125 C7.92938719 18.71133337 8.96429911 17.35536165 10 16 C6.01298 9.8875389 6.01298 9.8875389 1.625 4.0625 C0 2 0 2 0 0 Z " fill="#5A5A5A" transform="translate(49,84)"/>
<path d="M0 0 C0.78503906 -0.01675781 1.57007813 -0.03351563 2.37890625 -0.05078125 C3.39791016 0.12904297 3.39791016 0.12904297 4.4375 0.3125 C5.0975 1.3025 5.7575 2.2925 6.4375 3.3125 C6.1075 3.9725 5.7775 4.6325 5.4375 5.3125 C2.4675 4.9825 -0.5025 4.6525 -3.5625 4.3125 C-3.2325 5.3025 -2.9025 6.2925 -2.5625 7.3125 C-0.23578146 8.00189809 2.09817594 8.66716922 4.4375 9.3125 C6.9327038 11.00279935 7.33126414 11.79460017 7.9375 14.75 C7.4375 17.3125 7.4375 17.3125 5.5 19.6875 C1.75325694 21.67556775 -0.45596755 21.50547156 -4.57421875 21.0625 C-6.5625 20.3125 -6.5625 20.3125 -7.83203125 18.25 C-8.19361328 17.2909375 -8.19361328 17.2909375 -8.5625 16.3125 C-4.98605152 15.0744986 -2.22555234 15.56323929 1.4375 16.3125 C1.4375 15.6525 1.4375 14.9925 1.4375 14.3125 C0.32375 13.85875 -0.79 13.405 -1.9375 12.9375 C-5.5625 11.3125 -5.5625 11.3125 -7.5625 9.3125 C-7.875 5.8125 -7.875 5.8125 -7.5625 2.3125 C-4.45212372 0.23891581 -3.56688748 0.01762877 0 0 Z " fill="#FEF9ED" transform="translate(255.5625,74.6875)"/>
<path d="M0 0 C1.65 0 3.3 0 5 0 C5.13559675 2.56428515 5.23433188 5.12135216 5.3125 7.6875 C5.3753418 8.7693457 5.3753418 8.7693457 5.43945312 9.87304688 C5.53501378 14.05860365 5.34425533 15.55680742 2.67578125 18.9921875 C0 21 0 21 -3.125 21.4375 C-6 21 -6 21 -9 19 C-8.34 17.68 -7.68 16.36 -7 15 C-5.02 15 -3.04 15 -1 15 C-0.67 10.05 -0.34 5.1 0 0 Z " fill="#FEF8EA" transform="translate(239,75)"/>
<path d="M0 0 C3.62160551 1.88700888 5.68934422 4.06803267 7 8 C6.01 8.66 5.02 9.32 4 10 C3.319375 8.7934375 3.319375 8.7934375 2.625 7.5625 C1.25274335 4.91143428 1.25274335 4.91143428 -1 4 C-2.47668337 3.9047301 -3.95775457 3.87014041 -5.4375 3.875 C-6.21996094 3.87242188 -7.00242187 3.86984375 -7.80859375 3.8671875 C-10.17895347 3.91617452 -10.17895347 3.91617452 -13 5 C-13.99 7.97 -14.98 10.94 -16 14 C-9.07 14 -2.14 14 5 14 C5.33 13.01 5.66 12.02 6 11 C6 12.32 6 13.64 6 15 C-1.59 15 -9.18 15 -17 15 C-17.33 17.64 -17.66 20.28 -18 23 C-18.33 23 -18.66 23 -19 23 C-19.5074624 15.60232594 -19.8170323 9.73319162 -15.484375 3.48828125 C-11.18800521 -0.81939478 -5.74517432 -0.90475186 0 0 Z " fill="#6F6F6F" transform="translate(39,84)"/>
<path d="M0 0 C0.99 0.33 1.98 0.66 3 1 C3.33 1.99 3.66 2.98 4 4 C4.53625 3.525625 5.0725 3.05125 5.625 2.5625 C8.42842836 0.71813924 10.69620258 0.37543153 14 0 C14.33 0.99 14.66 1.98 15 3 C14.18595703 3.25523438 14.18595703 3.25523438 13.35546875 3.515625 C12.28232422 3.87914063 12.28232422 3.87914063 11.1875 4.25 C10.47980469 4.48203125 9.77210937 4.7140625 9.04296875 4.953125 C6.46958291 6.27180073 5.52398732 7.54763097 4 10 C3.50142674 12.50359737 3.50142674 12.50359737 3.48828125 15.203125 C3.43510742 16.67265625 3.43510742 16.67265625 3.38085938 18.171875 C3.35830078 19.18765625 3.33574219 20.2034375 3.3125 21.25 C3.27833984 22.28125 3.24417969 23.3125 3.20898438 24.375 C3.12661907 26.91655812 3.05743166 29.45777626 3 32 C2.01 32 1.02 32 0 32 C0 21.44 0 10.88 0 0 Z " fill="#5B5B5B" transform="translate(111,84)"/>
<path d="M0 0 C2.97752446 0.33083605 4.81374721 0.87415352 7.3125 2.5625 C9.38952185 5.56264267 9.63492128 7.50422211 9.4609375 11.09765625 C9 13 9 13 6.6875 15.4375 C2.30808003 17.9836744 -0.97614196 18.34060055 -6 18 C-10.13941246 16.40791829 -12.76848048 14.87579706 -15 11 C-15.6875 8.75 -15.6875 8.75 -16 7 C-14.68 7 -13.36 7 -12 7 C-11.7525 7.78375 -11.505 8.5675 -11.25 9.375 C-10.22930976 12.02419575 -10.22930976 12.02419575 -8.3125 13.3125 C-4.25411938 14.51904559 -0.4980584 14.61458806 3.4375 13 C3.953125 12.67 4.46875 12.34 5 12 C5 10.02 5 8.04 5 6 C2.69 5.01 0.38 4.02 -2 3 C-1.34 2.01 -0.68 1.02 0 0 Z " fill="#727272" transform="translate(200,99)"/>
<path d="M0 0 C2.85939128 2.61074856 3.88123021 4.54507003 4.203125 8.48828125 C4.31982535 15.51947749 3.79063635 19.96313103 -1.125 25.3125 C-4.9198168 27.53989247 -8.60030914 28.24717364 -13 28 C-13.99 27.34 -14.98 26.68 -16 26 C-15.67 25.34 -15.34 24.68 -15 24 C-13.783125 24.061875 -12.56625 24.12375 -11.3125 24.1875 C-7.4014614 24.18057781 -5.09327165 23.54740018 -2 21 C0.02404849 17.80524751 0.24463499 15.3074392 0.1875 11.5625 C0.18105469 10.63566406 0.17460938 9.70882812 0.16796875 8.75390625 C0.06399798 5.97728869 0.06399798 5.97728869 -0.57421875 3.21484375 C-0.71472656 2.48394531 -0.85523437 1.75304687 -1 1 C-0.67 0.67 -0.34 0.34 0 0 Z " fill="#5D5D5D" transform="translate(102,89)"/>
<path d="M0 0 C0.66 0.33 1.32 0.66 2 1 C2.6875 4.5 2.6875 4.5 3 8 C2 9 2 9 -0.31665039 9.11352539 C-1.31688232 9.10828857 -2.31711426 9.10305176 -3.34765625 9.09765625 C-4.42724609 9.09443359 -5.50683594 9.09121094 -6.61914062 9.08789062 C-7.75544922 9.07951172 -8.89175781 9.07113281 -10.0625 9.0625 C-11.20267578 9.05798828 -12.34285156 9.05347656 -13.51757812 9.04882812 C-16.34510351 9.03699747 -19.1725264 9.0205141 -22 9 C-22 11.31 -22 13.62 -22 16 C-22.66 16.33 -23.32 16.66 -24 17 C-24 12.71 -24 8.42 -24 4 C-23.67 4.99 -23.34 5.98 -23 7 C-15.41 7 -7.82 7 0 7 C-0.33 5.02 -0.66 3.04 -1 1 C-0.67 0.67 -0.34 0.34 0 0 Z " fill="#545454" transform="translate(45,92)"/>
<path d="M0 0 C2.40085343 1.09861538 3.95748184 2.27998471 6 4 C5.01 4.99 4.02 5.98 3 7 C3 6.34 3 5.68 3 5 C-1.33400534 3.55533155 -5.47615448 3.32286389 -10 4 C-12.2902332 5.44912986 -13.34557976 6.79410635 -15 9 C-15.66 8.67 -16.32 8.34 -17 8 C-17 6.02 -17 4.04 -17 2 C-16.34 2.66 -15.68 3.32 -15 4 C-14.38125 3.34 -13.7625 2.68 -13.125 2 C-8.76195889 -0.79234631 -5.05632602 -0.83868885 0 0 Z " fill="#5C5C5C" transform="translate(97,84)"/>
<path d="M0 0 C0.66 0.33 1.32 0.66 2 1 C1.79503906 1.54269531 1.59007812 2.08539063 1.37890625 2.64453125 C1.10949219 3.35996094 0.84007812 4.07539062 0.5625 4.8125 C0.29566406 5.52019531 0.02882813 6.22789063 -0.24609375 6.95703125 C-0.86225186 8.62672396 -1.43719235 10.31157704 -2 12 C4.93 12 11.86 12 19 12 C19.33 11.01 19.66 10.02 20 9 C20 10.32 20 11.64 20 13 C12.41 13 4.82 13 -3 13 C-3.33 15.64 -3.66 18.28 -4 21 C-4.33 21 -4.66 21 -5 21 C-5.57650114 12.59589453 -5.59204823 6.61059987 0 0 Z " fill="#7D7D7D" transform="translate(25,86)"/>
<path d="M0 0 C0.99 0 1.98 0 3 0 C3.309375 0.928125 3.61875 1.85625 3.9375 2.8125 C6.54002984 6.83459158 8.53642552 7.19070316 13.0390625 8.26171875 C13.68617188 8.50535156 14.33328125 8.74898437 15 9 C15.33 9.99 15.66 10.98 16 12 C10.77028126 12.31378312 7.41426281 11.90940049 3 9 C0.39308871 5.61101532 0 4.37265387 0 0 Z " fill="#6B6B6B" transform="translate(156,105)"/>
<path d="M0 0 C0.33 0.66 0.66 1.32 1 2 C-1.64 2 -4.28 2 -7 2 C-7 2.66 -7 3.32 -7 4 C-8.64488294 5.68816933 -10.31337542 7.35353315 -12 9 C-12.99 10.485 -12.99 10.485 -14 12 C-14.66 10.68 -15.32 9.36 -16 8 C-15.04578192 6.85073734 -14.08647955 5.70569459 -13.125 4.5625 C-12.59132812 3.92441406 -12.05765625 3.28632812 -11.5078125 2.62890625 C-8.19008942 -0.95526609 -4.5936525 -0.07409117 0 0 Z " fill="#5C5C5C" transform="translate(142,84)"/>
<path d="M0 0 C3.92671231 1.3089041 6.43926031 2.7076204 9 6 C9.75 9.25 9.75 9.25 10 12 C9.01 12.33 8.02 12.66 7 13 C6.566875 11.88625 6.13375 10.7725 5.6875 9.625 C4.30088881 5.82487666 4.30088881 5.82487666 1 4 C-1.0492094 3.54860541 -1.0492094 3.54860541 -3.1875 3.375 C-4.445625 3.25125 -5.70375 3.1275 -7 3 C-7 2.67 -7 2.34 -7 2 C-3.535 1.505 -3.535 1.505 0 1 C0 0.67 0 0.34 0 0 Z " fill="#5A5A5A" transform="translate(142,84)"/>
<path d="M0 0 C0.99 0.33 1.98 0.66 3 1 C3.28875 1.78375 3.5775 2.5675 3.875 3.375 C5.30782287 6.71825336 6.79546653 7.39773327 10 9 C10.763125 9.391875 11.52625 9.78375 12.3125 10.1875 C12.869375 10.455625 13.42625 10.72375 14 11 C6.85681024 11.48428405 6.85681024 11.48428405 3.125 9.375 C0.71829861 6.68515727 -0.13084629 4.47661483 -1 1 C-0.67 0.67 -0.34 0.34 0 0 Z " fill="#5A5A5A" transform="translate(185,105)"/>
<path d="M0 0 C3.50150804 0.29179234 4.78286467 0.78286467 7.3125 3.3125 C9 6 9 6 9 10 C8.01 10 7.02 10 6 10 C5.855625 9.21625 5.71125 8.4325 5.5625 7.625 C4.28463143 4.84843237 4.28463143 4.84843237 1.86328125 4.22265625 C-0.41974691 3.73164391 -2.68695927 3.31887599 -5 3 C-5 2.67 -5 2.34 -5 2 C-3.35 1.67 -1.7 1.34 0 1 C0 0.67 0 0.34 0 0 Z " fill="#717171" transform="translate(171,84)"/>
<path d="M0 0 C2.91703734 0.69928977 5.77030099 1.51616738 8.625 2.4375 C9.78902344 2.80681641 9.78902344 2.80681641 10.9765625 3.18359375 C13 4 13 4 15 6 C9.42447662 6.28838914 5.82637422 6.178344 1 3 C0.67 2.01 0.34 1.02 0 0 Z " fill="#575757" transform="translate(187,95)"/>
<path d="M0 0 C0.99 0 1.98 0 3 0 C1.5140084 4.59306496 -0.85014682 7.43569245 -4 11 C-5.32 10.67 -6.64 10.34 -8 10 C-6.74054645 8.32471737 -5.46706318 6.65997386 -4.1875 5 C-3.47980469 4.071875 -2.77210937 3.14375 -2.04296875 2.1875 C-1.36878906 1.465625 -0.69460937 0.74375 0 0 Z " fill="#646464" transform="translate(71,84)"/>
<path d="M0 0 C2.1519437 3.22791555 2.20086443 4.28400809 2 8 C1.01 8 0.02 8 -1 8 C-1.309375 7.195625 -1.61875 6.39125 -1.9375 5.5625 C-2.76335345 3.10919595 -2.76335345 3.10919595 -4 2 C-5.51469448 1.76807135 -7.03754562 1.58784762 -8.5625 1.4375 C-9.38878906 1.35371094 -10.21507812 1.26992187 -11.06640625 1.18359375 C-11.70449219 1.12300781 -12.34257812 1.06242187 -13 1 C-13 0.67 -13 0.34 -13 0 C-11.58456585 -0.19658808 -10.16755969 -0.38187546 -8.75 -0.5625 C-7.96109375 -0.66691406 -7.1721875 -0.77132812 -6.359375 -0.87890625 C-3.92516937 -1.00384065 -2.26822395 -0.88693373 0 0 Z " fill="#707070" transform="translate(206,86)"/>
<path d="M0 0 C0.99 0 1.98 0 3 0 C3.391875 0.598125 3.78375 1.19625 4.1875 1.8125 C6.83229822 5.00449785 10.12496524 5.78502473 14 7 C14 7.33 14 7.66 14 8 C6.23214286 8.66964286 6.23214286 8.66964286 2.5 5.6875 C0 3 0 3 0 0 Z " fill="#535353" transform="translate(127,108)"/>
<path d="M0 0 C0 0.66 0 1.32 0 2 C-0.54269531 2.19335938 -1.08539063 2.38671875 -1.64453125 2.5859375 C-2.71767578 2.97652344 -2.71767578 2.97652344 -3.8125 3.375 C-4.52019531 3.63023438 -5.22789063 3.88546875 -5.95703125 4.1484375 C-8.24773359 5.0265769 -8.24773359 5.0265769 -11 7 C-11.66 6.34 -12.32 5.68 -13 5 C-5.32421875 -1.65234375 -5.32421875 -1.65234375 0 0 Z " fill="#6B6B6B" transform="translate(126,85)"/>
<path d="M0 0 C4.28806873 0.47645208 6.26647487 1.65902484 9 5 C9 5.66 9 6.32 9 7 C8.34 7 7.68 7 7 7 C6.67 8.32 6.34 9.64 6 11 C5.79375 10.05125 5.5875 9.1025 5.375 8.125 C4.29166667 4.70833333 4.29166667 4.70833333 0.875 3.625 C-0.07375 3.41875 -1.0225 3.2125 -2 3 C-1.34 2.01 -0.68 1.02 0 0 Z " fill="#747474" transform="translate(200,99)"/>
<path d="M0 0 C0.99 1.485 0.99 1.485 2 3 C1.01 3.66 0.02 4.32 -1 5 C-1 4.34 -1 3.68 -1 3 C-6.94 2.01 -6.94 2.01 -13 1 C-13 0.67 -13 0.34 -13 0 C-7.91307308 -1.83129369 -4.9416053 -2.41334212 0 0 Z " fill="#767676" transform="translate(101,86)"/>
<path d="M0 0 C2.97 0.99 5.94 1.98 9 3 C8.67 3.99 8.34 4.98 8 6 C5.125 5.8125 5.125 5.8125 2 5 C0.625 2.4375 0.625 2.4375 0 0 Z " fill="#F9C24A" transform="translate(249,86)"/>
<path d="M0 0 C0.66 0.66 1.32 1.32 2 2 C0.1746875 2.1546875 0.1746875 2.1546875 -1.6875 2.3125 C-5.41069448 2.76219312 -7.91662995 3.78382778 -11 6 C-8.71720033 -0.35922765 -6.67106369 -0.35737841 0 0 Z " fill="#484848" transform="translate(36,84)"/>
<path d="M0 0 C0.33 0 0.66 0 1 0 C1.12375 0.9075 1.2475 1.815 1.375 2.75 C1.92802286 5.62571885 2.68078293 7.44951366 4 10 C4 10.99 4 11.98 4 13 C3.01 13.33 2.02 13.66 1 14 C-0.04976964 10.85069107 -0.10131595 8.61185544 -0.0625 5.3125 C-0.05347656 4.31863281 -0.04445313 3.32476562 -0.03515625 2.30078125 C-0.02355469 1.54152344 -0.01195313 0.78226562 0 0 Z " fill="#767676" transform="translate(125,95)"/>
<path d="M0 0 C3.63 0 7.26 0 11 0 C11 0.66 11 1.32 11 2 C5.06 2.495 5.06 2.495 -1 3 C-0.67 2.01 -0.34 1.02 0 0 Z " fill="#4A4A4A" transform="translate(191,84)"/>
<path d="M0 0 C0.66 0 1.32 0 2 0 C2.36666667 5.5 2.36666667 5.5 0.625 7.875 C-1 9 -1 9 -3 9 C-2.30058404 5.85262818 -1.23921302 2.97411124 0 0 Z " fill="#4F4F4F" transform="translate(207,106)"/>
<path d="M0 0 C0.33 0.99 0.66 1.98 1 3 C0.01 4.485 0.01 4.485 -1 6 C-2.32 6 -3.64 6 -5 6 C-3.63016497 2.83884224 -3.0109362 2.0072908 0 0 Z " fill="#626262" transform="translate(53,110)"/>
<path d="M0 0 C0.66 0.33 1.32 0.66 2 1 C2.40729228 3.32156597 2.74438677 5.6568787 3 8 C1.35 8 -0.3 8 -2 8 C-1.34 7.67 -0.68 7.34 0 7 C-0.185625 6.030625 -0.37125 5.06125 -0.5625 4.0625 C-0.706875 3.051875 -0.85125 2.04125 -1 1 C-0.67 0.67 -0.34 0.34 0 0 Z " fill="#4A4A4A" transform="translate(45,92)"/>
<path d="M0 0 C1.32 0.66 2.64 1.32 4 2 C4 3.98 4 5.96 4 8 C0 3.375 0 3.375 0 0 Z " fill="#464646" transform="translate(176,101)"/>
<path d="M0 0 C0.33 0.66 0.66 1.32 1 2 C3.52733235 2.65555119 3.52733235 2.65555119 6 3 C5.01 3.495 5.01 3.495 4 4 C4 4.66 4 5.32 4 6 C1.525 5.01 1.525 5.01 -1 4 C-0.67 2.68 -0.34 1.36 0 0 Z " fill="#707070" transform="translate(160,94)"/>
<path d="M0 0 C2.31 0 4.62 0 7 0 C7.33 0.99 7.66 1.98 8 3 C5.69 3 3.38 3 1 3 C0.67 2.01 0.34 1.02 0 0 Z " fill="#767676" transform="translate(164,114)"/>
<path d="M0 0 C0.99 0 1.98 0 3 0 C2.67 1.65 2.34 3.3 2 5 C1.01 5 0.02 5 -1 5 C-0.67 3.35 -0.34 1.7 0 0 Z " fill="#626262" transform="translate(44,105)"/>
<path d="M0 0 C1.32 0.66 2.64 1.32 4 2 C3.67 2.66 3.34 3.32 3 4 C-0.3 3.67 -3.6 3.34 -7 3 C-7 2.67 -7 2.34 -7 2 C-3.535 1.505 -3.535 1.505 0 1 C0 0.67 0 0.34 0 0 Z " fill="#8D8D8D" transform="translate(142,84)"/>
</svg>
